<?xml version="1.0" encoding="UTF-8"?>
<svg xmlns="http://www.w3.org/2000/svg" width="44" height="44" viewBox="0 0 44 44" fill="none">
  <path d="M11 22C11 25.0376 8.53757 27.5 5.5 27.5C2.46244 27.5 0 25.0376 0 22C0 18.9624 2.46244 16.5 5.5 16.5C8.53757 16.5 11 18.9624 11 22Z" fill="#158742"></path>
  <path d="M27.5 22C27.5 25.0376 25.0376 27.5 22 27.5C18.9624 27.5 16.5 25.0376 16.5 22C16.5 18.9624 18.9624 16.5 22 16.5C25.0376 16.5 27.5 18.9624 27.5 22Z" fill="#158742"></path>
  <path d="M38.5 27.5C41.5377 27.5 44 25.0376 44 22C44 18.9624 41.5377 16.5 38.5 16.5C35.4624 16.5 33 18.9624 33 22C33 25.0376 35.4624 27.5 38.5 27.5Z" fill="#158742"></path>
</svg>
