<?xml version="1.0" encoding="UTF-8"?>
<svg xmlns="http://www.w3.org/2000/svg" width="37" height="37" viewBox="0 0 37 37" fill="none">
  <path d="M35.8178 19.0955C35.9482 19.1934 36.1043 19.2433 36.2614 19.2433C36.3739 19.2433 36.487 19.2176 36.5916 19.1654C36.8418 19.0403 37 18.7845 37 18.5046V15.5373C37 15.3048 36.8906 15.0859 36.7047 14.9464L33.2742 12.372C33.2746 12.3626 33.2756 12.3533 33.2756 12.3438V5.99531C33.2756 5.58734 32.9448 5.25658 32.5369 5.25658H27.4196C27.0116 5.25658 26.6809 5.58734 26.6809 5.99531V7.4242L18.9752 1.64151C18.7124 1.44437 18.3511 1.44437 18.0883 1.64151L0.358838 14.9463C0.172863 15.0858 0.0635307 15.3047 0.0635307 15.5372V18.5045C0.0635307 18.7844 0.221711 19.0402 0.471956 19.1653C0.7222 19.2904 1.02176 19.2634 1.24568 19.0954L1.54099 18.8738V34.0285H0.738729C0.330766 34.0285 0 34.3593 0 34.7673C0 35.1752 0.330766 35.506 0.738729 35.506H36.2593C36.6673 35.506 36.9981 35.1752 36.9981 34.7673C36.9981 34.3593 36.6673 34.0285 36.2593 34.0285H35.5225V18.8738L35.8178 19.0955ZM28.1583 6.73404H31.7981V11.2644L28.1583 8.53294V6.73404ZM1.54099 15.9065L18.5318 3.156L35.5225 15.9065V17.0267L18.9751 4.6089C18.8437 4.51028 18.6877 4.46097 18.5317 4.46097C18.3756 4.46097 18.2197 4.51028 18.0883 4.6089L1.54099 17.0267V15.9065ZM21.4268 34.0286H15.5712C15.5736 34.0045 15.5749 33.9801 15.5749 33.9555V21.5395H21.4232V33.9555C21.4232 33.9801 21.4244 34.0045 21.4268 34.0286ZM34.0451 17.9237V34.0285H22.8969C22.8993 34.0044 22.9006 33.98 22.9006 33.9554V20.8007C22.9006 20.3928 22.5698 20.062 22.1619 20.062H14.8362C14.4282 20.062 14.0975 20.3928 14.0975 20.8007V33.9555C14.0975 33.9801 14.0987 34.0045 14.1011 34.0286H3.01845V17.9237C3.01845 17.8732 3.01328 17.8238 3.00367 17.7761L18.5318 6.12329L34.0599 17.7761C34.0502 17.8238 34.0451 17.8732 34.0451 17.9237Z" fill="#158742"></path>
  <path d="M17.0679 27.3701C16.874 27.3701 16.6837 27.4495 16.5462 27.5862C16.4087 27.7238 16.3301 27.9149 16.3301 28.1088C16.3301 28.3037 16.4087 28.4939 16.5462 28.6315C16.6837 28.7691 16.8741 28.8476 17.0679 28.8476C17.2627 28.8476 17.4529 28.7691 17.5905 28.6315C17.7281 28.4939 17.8075 28.3037 17.8075 28.1088C17.8075 27.9149 17.7282 27.7247 17.5905 27.5862C17.4529 27.4496 17.2628 27.3701 17.0679 27.3701Z" fill="#158742"></path>
  <path d="M14.7949 14.0983C14.7949 16.1403 16.4561 17.8015 18.4982 17.8015C20.5402 17.8015 22.2014 16.1402 22.2014 14.0983C22.2014 12.0563 20.5401 10.395 18.4982 10.395C16.4562 10.395 14.7949 12.0562 14.7949 14.0983ZM18.4982 16.3241C17.5298 16.3241 16.7044 15.7022 16.399 14.837H20.5975C20.2921 15.7022 19.4666 16.3241 18.4982 16.3241ZM20.5975 13.3595H16.399C16.7044 12.4944 17.5298 11.8725 18.4982 11.8725C19.4666 11.8725 20.2921 12.4944 20.5975 13.3595Z" fill="#158742"></path>
  <path d="M11.8972 28.9004V20.8007C11.8972 20.3928 11.5665 20.062 11.1585 20.062H5.97584C5.56788 20.062 5.23711 20.3928 5.23711 20.8007V28.9009C4.83903 28.9123 4.51953 29.2377 4.51953 29.6385C4.51953 30.0465 4.8503 30.3773 5.25826 30.3773H5.97584H11.1585H11.8837C12.2917 30.3773 12.6225 30.0465 12.6225 29.6385C12.6226 29.2351 12.2989 28.9077 11.8972 28.9004ZM10.4198 21.5395V23.0169H6.71457V21.5395H10.4198ZM6.71457 28.8998V24.4944H10.4198V28.8998H6.71457Z" fill="#158742"></path>
  <path d="M25.184 30.3773H25.9055H31.0882H31.8096C32.2176 30.3773 32.5483 30.0465 32.5483 29.6385C32.5483 29.2364 32.2268 28.91 31.8269 28.9006V20.8007C31.8269 20.3928 31.4961 20.062 31.0882 20.062H25.9055C25.4975 20.062 25.1668 20.3928 25.1668 20.8007V28.9006C24.7668 28.91 24.4453 29.2364 24.4453 29.6385C24.4453 30.0465 24.7762 30.3773 25.184 30.3773ZM26.6442 28.8998V24.4944H30.3494V28.8998H26.6442ZM30.3494 21.5395V23.0169H26.6442V21.5395H30.3494Z" fill="#158742"></path>
</svg>
