<?xml version="1.0" encoding="UTF-8"?>
<svg xmlns="http://www.w3.org/2000/svg" width="38" height="38" viewBox="0 0 38 38" fill="none">
  <path d="M4.53087 31.9622C4.53087 33.0978 5.4586 34.0329 6.59415 34.0329H10.7615C11.8971 34.0329 12.8248 33.0941 12.8248 31.9474V26.7484H25.2676V31.9474C25.2676 33.1052 26.1879 34.0329 27.3309 34.0329H31.4982C32.6301 34.0329 33.5615 33.1052 33.5615 31.9622V13.9011L34.2295 14.2611C34.7342 14.5319 35.3613 14.3427 35.6322 13.8343C35.9031 13.3296 35.7139 12.6987 35.2092 12.4241L19.9609 4.21926C19.7457 3.97433 19.4303 3.84816 19.1149 3.86672C18.7957 3.84445 18.4803 3.97433 18.2688 4.21926L3.02052 12.4241C2.51583 12.6987 2.32657 13.3296 2.59376 13.8343C2.86466 14.339 3.4918 14.5319 3.99649 14.2611L4.52716 13.9753L4.53087 31.9622Z" fill="#158742"></path>
  <path d="M6.63437 12.6171C6.63437 15.4745 6.63437 27.0823 6.62695 30.6522C6.62695 31.3165 7.09082 31.7024 7.71055 31.7024H9.78867C10.3676 31.7024 10.7943 30.9788 10.7943 30.6634V17.1407C10.7943 15.9903 11.7258 15.0626 12.8687 15.0626H25.3635C26.5102 15.0626 27.4379 15.9866 27.4379 17.1407V25.4606C27.4379 25.4606 27.4342 28.8524 27.4305 30.6374C27.4305 31.272 27.9018 31.7024 28.5289 31.7024C29.1598 31.7024 29.9465 31.7024 30.5662 31.7062C31.16 31.7062 31.5979 30.9899 31.5979 30.6634V12.5429L19.1848 5.88916L6.63437 12.6171Z" fill="#FDFEFF"></path>
  <path d="M25.3492 16.3394C25.9281 16.3394 26.3957 16.7995 26.3957 17.3784V18.4175H11.834V17.3784C11.834 16.8032 12.3016 16.3394 12.8805 16.3394H25.3492ZM11.834 19.4603H26.3957V21.5421H11.834V19.4603ZM11.834 22.5774H26.3957V24.6593H11.834V22.5774Z" fill="white"></path>
</svg>
