<?xml version="1.0" encoding="UTF-8"?>
<svg xmlns="http://www.w3.org/2000/svg" width="52" height="26" viewBox="0 0 52 26" fill="none">
  <path d="M37.4026 7.43701C37.0203 7.43701 36.6668 7.63997 36.4742 7.97007L29.6681 19.6279C29.474 19.9602 29.4725 20.3712 29.6643 20.7052C29.8559 21.039 30.2115 21.245 30.5965 21.245H44.2086C44.5936 21.245 44.9492 21.039 45.1409 20.7052C45.3327 20.3712 45.3311 19.9604 45.137 19.6279L38.3311 7.97007C38.1383 7.63997 37.7848 7.43701 37.4026 7.43701ZM32.4689 19.0948L37.4026 10.6441L42.3361 19.0948H32.4689Z" fill="#158742"></path>
  <path d="M50.9247 23.1619H25.7524L37.4023 3.20724L46.4217 18.6562C46.721 19.1691 47.3796 19.3419 47.892 19.0426C48.4048 18.7434 48.5778 18.085 48.2783 17.5723L38.3307 0.533059C38.3277 0.527899 38.3238 0.523455 38.3208 0.518295C38.3027 0.488482 38.2832 0.459815 38.2624 0.431865C38.2561 0.423409 38.2501 0.414952 38.2437 0.406638C38.2174 0.373671 38.1898 0.341995 38.16 0.312325C38.1565 0.308885 38.1526 0.305875 38.1491 0.302435C38.1224 0.276635 38.0942 0.252411 38.0649 0.229477C38.0556 0.222167 38.046 0.215145 38.0364 0.208265C38.0096 0.188628 37.9821 0.170424 37.9536 0.153224C37.9457 0.148494 37.9381 0.143478 37.9301 0.138891C37.8926 0.117821 37.8541 0.0984702 37.8141 0.0819868C37.8125 0.0814135 37.8109 0.08084 37.8094 0.0802667C37.7721 0.0650733 37.7337 0.0521739 37.6944 0.0411372C37.6839 0.0381272 37.6735 0.0356906 37.6629 0.0331106C37.6311 0.0252272 37.5988 0.0187768 37.5658 0.0137602C37.5545 0.0120402 37.5433 0.010033 37.532 0.00859969C37.4894 0.00343967 37.4463 0 37.4022 0H14.5974C14.2152 0 13.8617 0.202961 13.6691 0.533059L0.146638 23.6948C-0.0474363 24.0272 -0.049013 24.4382 0.142768 24.7721C0.334405 25.106 0.690017 25.3119 1.07501 25.3119H13.4788C13.48 25.3119 13.481 25.3121 13.4821 25.3121C13.4833 25.3121 13.4843 25.3119 13.4854 25.3119H18.6296C18.6307 25.3119 18.6317 25.3121 18.6329 25.3121C18.634 25.3121 18.635 25.3119 18.6361 25.3119H23.8802H50.925C51.5188 25.3119 52 24.8306 52 24.2369C52 23.6432 51.5185 23.1619 50.9247 23.1619ZM23.2628 23.1619H20.5018L30.4535 6.0378C30.7517 5.52438 30.5774 4.86648 30.0642 4.5682C29.551 4.26963 28.8927 4.44407 28.5946 4.95749L18.0151 23.1619H15.3511L27.562 2.15001H35.5299L23.2628 23.1619ZM15.2145 2.15001H20.1009L10.7198 18.2924C10.4215 18.8058 10.5958 19.4638 11.1091 19.762C11.2791 19.8608 11.4649 19.9078 11.6483 19.9078C12.0187 19.9078 12.3793 19.7162 12.5787 19.3727L22.5877 2.15001H25.0754L12.8644 23.1619H2.94738L15.2145 2.15001Z" fill="#158742"></path>
</svg>
