<?xml version="1.0" encoding="UTF-8"?>
<svg xmlns="http://www.w3.org/2000/svg" width="38" height="38" viewBox="0 0 38 38" fill="none">
  <path d="M7.0446 16.7458C5.71236 18.0471 5.78978 19.7822 7.21499 21.1918L10.2513 24.2591C8.67113 25.266 5.61939 26.5053 4.16318 27.9615C1.88603 30.2387 1.9015 33.306 4.2252 35.6452C6.56437 37.9688 9.63165 37.9998 11.9089 35.7226C13.3805 34.2509 14.6043 31.1992 15.6112 29.6345L18.7094 32.6863C20.1192 34.0805 21.8387 34.158 23.1554 32.8413L24.8131 31.1372C25.8664 30.0528 26.0368 28.7206 25.2778 27.4968C25.9594 27.3264 26.5945 26.9391 27.0903 26.4279L34.2935 19.1935C36.0131 17.4895 35.9667 15.4601 34.1854 13.6786L21.7148 1.20816C20.5994 0.108263 19.0813 -0.000172764 18.0434 1.03777C17.5786 1.50246 17.2223 2.16861 17.0364 3.06711C16.1999 6.90891 14.5113 10.4874 12.5285 13.0125C12.1877 13.4617 11.9553 13.8955 11.8468 14.3448C10.778 13.9109 9.66259 14.1434 8.73316 15.0573L7.0446 16.7458ZM24.9215 25.1421C24.2708 25.7773 23.6667 25.7308 23.0161 25.0646H23.0005L14.6662 16.7303L14.6818 16.7149C14.0776 16.1262 13.7988 15.4756 14.6662 14.2208C16.4632 11.6337 18.2448 8.08623 19.2982 4.13599C19.3601 3.95013 19.4376 3.79521 19.577 3.65577C19.8249 3.39241 20.1657 3.31492 20.5064 3.67124L28.0352 11.1845C27.6325 13.7715 25.5721 16.3431 23.992 17.9232C23.8371 18.0781 23.6357 18.295 23.8836 18.5429C24.6581 19.3174 29.3055 15.9868 31.1955 14.3602L32.2954 15.4446C33.0388 16.1882 33.0543 16.9937 32.3884 17.6599L24.9215 25.1421ZM9.13589 18.2175L10.2048 17.1642C10.6851 16.6994 11.3201 16.6839 11.8159 17.1951L22.6908 28.0854C23.1709 28.5967 23.1865 29.1853 22.7062 29.6655L21.6838 30.7344C21.1881 31.2301 20.5685 31.2147 20.0727 30.7035L16.1689 26.8151C15.6267 26.2575 15.0071 26.4744 14.4494 27.2025C13.3185 28.8135 11.4131 32.8722 10.2823 33.9876C8.95003 35.2889 7.18398 35.3198 5.86728 34.003C4.55051 32.6863 4.56598 30.9048 5.88275 29.5881C6.99812 28.4728 11.0568 26.5518 12.6834 25.4209C13.396 24.8633 13.6284 24.2436 13.0552 23.7014L9.1669 19.8286C8.67113 19.3483 8.65566 18.6978 9.13589 18.2175ZM6.90515 32.9806C7.41639 33.4764 8.15997 33.4764 8.65566 32.9806C9.15143 32.454 9.13589 31.7259 8.65566 31.2301C8.14449 30.7344 7.38538 30.719 6.90515 31.2301C6.44047 31.7568 6.40946 32.4695 6.90515 32.9806Z" fill="#158742"></path>
</svg>
