<?xml version="1.0" encoding="UTF-8"?>
<svg xmlns="http://www.w3.org/2000/svg" width="38" height="36" viewBox="0 0 38 36" fill="none">
  <path d="M22.1133 0.00744942C18.4238 -0.152963 15.5412 2.3305 15.5412 2.3305C15.3761 2.46828 15.2626 2.65802 15.2192 2.86869C15.1759 3.07936 15.2054 3.29849 15.3028 3.49025C15.4002 3.68201 15.5597 3.83506 15.7554 3.92436C15.951 4.01366 16.1712 4.03393 16.3799 3.98186C16.3799 3.98186 19.6513 3.15643 22.1281 5.63323C22.2673 5.77236 22.5623 6.54488 22.5623 7.33655C22.5623 8.12822 22.2673 8.90075 22.1281 9.03987L16.5951 14.5729H16.5914C16.451 14.4981 16.294 14.4599 16.135 14.4616C15.8882 14.4655 15.6526 14.5653 15.4781 14.7399L0.278138 29.9399C0.100045 30.118 0 30.3596 0 30.6116C0 30.8635 0.100045 31.1051 0.278138 31.2832L4.07814 35.0832C4.2563 35.2613 4.49791 35.3614 4.74982 35.3614C5.00173 35.3614 5.24333 35.2613 5.4215 35.0832L20.6215 19.8832C20.7652 19.7394 20.8589 19.5533 20.889 19.3522C20.919 19.1512 20.8838 18.9458 20.7885 18.7662L28.0248 11.5299L29.0565 12.5616L28.7781 12.8399C28.6 13.018 28.5 13.2596 28.5 13.5116C28.5 13.7635 28.6 14.0051 28.7781 14.1832L31.6281 17.0332C31.8063 17.2113 32.0479 17.3114 32.2998 17.3114C32.5517 17.3114 32.7933 17.2113 32.9715 17.0332L37.7215 12.2832C37.8996 12.1051 37.9996 11.8635 37.9996 11.6116C37.9996 11.3596 37.8996 11.118 37.7215 10.9399L34.8715 8.08987C34.6933 7.91178 34.4517 7.81173 34.1998 7.81173C33.9479 7.81173 33.7063 7.91178 33.5281 8.08987L33.2498 8.36819L32.1885 7.30686V7.30315C32.2829 7.12402 32.3177 6.91939 32.2876 6.71912C32.2576 6.51885 32.1643 6.33342 32.0215 6.18987L29.1715 3.33987C29.0277 3.1962 28.8416 3.10245 28.6405 3.07239C28.4395 3.04233 28.2341 3.07755 28.0545 3.17288L27.2715 2.38987C25.6332 0.751623 23.7901 0.0803547 22.1133 0.00744942ZM22.0317 1.90745C23.2888 1.96211 24.5976 2.40273 25.9281 3.73323L27.3531 5.15823C27.497 5.3019 27.6831 5.39566 27.8841 5.42572C28.0852 5.45577 28.2906 5.42055 28.4701 5.32522L30.0361 6.89124V6.89495C29.9417 7.07409 29.907 7.27872 29.937 7.47899C29.967 7.67926 30.0603 7.86469 30.2031 8.00823L32.5781 10.3832C32.7563 10.5613 32.9979 10.6614 33.2498 10.6614C33.5017 10.6614 33.7433 10.5613 33.9215 10.3832L34.1998 10.1049L35.7065 11.6116L32.2998 15.0182L30.7932 13.5116L31.0715 13.2332C31.2496 13.0551 31.3496 12.8135 31.3496 12.5616C31.3496 12.3096 31.2496 12.068 31.0715 11.8899L28.6965 9.51487C28.5183 9.33678 28.2767 9.23673 28.0248 9.23673C27.7729 9.23673 27.5313 9.33678 27.3531 9.51487L19.4748 17.3932L17.9682 15.8866L23.4715 10.3832C24.2824 9.57236 24.4623 8.44488 24.4623 7.33655C24.4623 6.22822 24.2824 5.10075 23.4715 4.28987C22.3808 3.19913 21.202 2.70095 20.0686 2.38616C20.7277 2.19367 21.293 1.87533 22.0317 1.90745ZM16.1498 16.7549L18.6065 19.2116L4.74982 33.0682L2.29318 30.6116L16.1498 16.7549Z" fill="#158742"></path>
</svg>
