<?xml version="1.0" encoding="UTF-8"?>
<svg xmlns="http://www.w3.org/2000/svg" width="41" height="41" viewBox="0 0 41 41" fill="none">
  <path d="M37.3517 21.6749C37.3261 21.37 37.2479 21.1086 37.0275 20.8882C36.9302 20.7908 36.8123 20.7165 36.688 20.6614C36.4958 20.4167 36.2088 20.2489 35.8757 20.2386C35.5772 20.2309 35.2761 20.2476 34.975 20.2578C35.1146 19.8504 35.0442 19.3712 34.7149 19.065C34.3113 18.687 33.9103 18.3091 33.5041 17.9337C33.2684 17.7146 32.9647 17.5992 32.6636 17.5992C32.3715 17.5992 32.0819 17.7069 31.8551 17.9337C31.4208 18.3706 31.3888 19.1547 31.8551 19.5852C32.1101 19.8197 32.3689 20.0503 32.6264 20.2822C31.7552 20.2912 30.8839 20.3053 30.0127 20.3104C29.7974 20.3104 29.5835 20.304 29.3682 20.304C29.3477 20.0413 29.2401 19.8389 29.0748 19.6313C28.9172 19.4327 28.7596 19.2328 28.6033 19.0355C28.438 18.828 28.1062 18.7267 27.8525 18.7267C27.5732 18.7267 27.3016 18.8382 27.1043 19.0355C26.9069 19.2328 26.7916 19.5045 26.7916 19.7863C26.7916 19.9772 26.8531 20.1323 26.9364 20.2783C25.9089 20.2578 24.8826 20.2309 23.855 20.2066C23.8435 20.2066 23.8319 20.2066 23.8204 20.2066C23.7961 20.1105 23.7704 20.0144 23.7269 19.9158C23.6564 19.7607 23.5872 19.6082 23.5193 19.4545C23.4155 19.2213 23.1337 19.0407 22.8979 18.9779C22.8082 18.9535 22.7173 18.9407 22.625 18.9407C22.4418 18.9407 22.2599 18.9881 22.101 19.0817C21.8704 19.2162 21.6948 19.4417 21.6244 19.7005C21.5782 19.8709 21.5898 20.0247 21.6244 20.1758C20.2034 20.1617 18.7813 20.1528 17.3604 20.1361C16.2944 20.1233 15.2284 20.1156 14.1662 20.0772C13.7242 20.0618 13.2821 20.0567 12.8388 20.0452C12.8196 19.7453 12.8029 19.4443 12.7901 19.1444C12.7722 18.6909 12.744 18.236 12.7248 17.7799C12.6864 16.8894 12.6338 16.0015 12.6133 15.1111C12.5903 14.2437 12.5928 13.3775 12.5903 12.5101C12.5851 11.6952 12.6005 10.8855 12.6902 10.0757C12.7607 9.65166 12.8644 9.24806 13.0156 8.84703C13.0771 8.71891 13.145 8.59462 13.2219 8.47547C13.2527 8.44216 13.2834 8.41012 13.3154 8.37937C13.3295 8.37041 13.3436 8.36272 13.3564 8.35503C13.4628 8.32172 13.5704 8.29353 13.6793 8.27047C13.81 8.26278 13.9394 8.26406 14.0688 8.27175C14.2533 8.30762 14.4353 8.35631 14.6121 8.41781C14.7543 8.48956 14.8863 8.57669 15.0208 8.66125C14.9247 8.91878 14.867 9.18144 14.9285 9.47228C14.99 9.758 15.1592 9.97453 15.3347 10.1923C15.5564 10.5127 15.7652 10.865 16.0676 11.1136C16.2457 11.2583 16.4404 11.398 16.6736 11.4339C16.9504 11.4723 17.204 11.4672 17.4629 11.357C17.7601 11.2327 17.9805 11.1007 18.2316 10.8932C18.5737 10.6113 18.8479 10.2641 19.1195 9.91175C19.4014 9.54659 19.6602 9.16094 19.9139 8.77784C20.1291 8.45625 20.3482 8.13081 20.5686 7.81434C20.7685 7.52478 20.9978 7.24291 21.1567 6.929C21.281 6.68813 21.3643 6.42931 21.3668 6.15769C21.3719 5.47222 20.7403 5.1045 20.1509 4.97509C19.7191 4.879 19.2861 4.79188 18.8594 4.67272C18.7736 4.64966 18.6877 4.63812 18.6019 4.63812C18.452 4.63812 18.3059 4.67144 18.1727 4.73422C18.106 4.72653 18.0394 4.74447 17.9728 4.74959C17.8857 4.54459 17.7537 4.35753 17.5487 4.24222C17.1003 3.98853 16.6992 3.66053 16.2546 3.39531C15.7959 3.11856 15.2604 2.92638 14.7428 2.78416C14.2149 2.63938 13.646 2.58172 13.1015 2.56634C13.0694 2.56378 13.0349 2.5625 12.999 2.5625C12.4634 2.5625 11.9112 2.67141 11.4089 2.84566C11.104 2.94944 10.8119 3.07116 10.521 3.20312C10.1623 3.36584 9.85864 3.62209 9.5537 3.86553C9.36535 4.01544 9.21161 4.20506 9.05914 4.39084C8.84645 4.64966 8.64529 4.92384 8.45567 5.20316C8.31857 5.40303 8.18917 5.60803 8.06489 5.81687C7.84323 6.19228 7.7087 6.63431 7.59211 7.052C7.43707 7.61063 7.35892 8.18975 7.30254 8.76503C7.10651 10.8176 7.18082 12.8907 7.17826 14.9509C7.1757 15.9426 7.16801 16.9381 7.1552 17.9324C7.14751 18.4064 7.14239 18.8818 7.1552 19.3558C7.15904 19.5583 7.16032 19.762 7.16673 19.9644C7.11164 19.9632 7.05526 19.9644 7.00017 19.9632C6.66704 19.958 6.33392 19.9529 6.00079 19.9529C5.69201 19.9529 5.38451 19.9568 5.07701 19.9683C4.84767 19.9772 4.64395 20.0669 4.46714 20.1899C4.2852 20.245 4.11223 20.3296 3.97642 20.4654C3.74323 20.6986 3.66123 20.9728 3.63432 21.2931C3.60614 21.6198 3.58051 21.9452 3.5677 22.2745C3.55489 22.6397 3.58051 22.9805 3.63561 23.3431C3.77014 24.2502 4.50429 24.855 5.34479 25.0933C5.31789 25.9837 5.34095 26.8819 5.45114 27.7673C5.51776 28.3003 5.59079 28.8358 5.6792 29.3688C5.75992 29.848 5.8291 30.3259 5.97901 30.7897C6.15454 31.3381 6.45307 31.8019 6.79901 32.2542C7.15904 32.7231 7.53445 33.1831 8.00723 33.5483C8.1392 33.6495 8.27885 33.7417 8.41467 33.8365C8.21736 34.2709 8.02004 34.7065 7.84579 35.1485C7.71895 35.4688 7.67539 35.8109 7.63567 36.1505C7.61517 36.3081 7.64848 36.5413 7.68436 36.6835C7.72536 36.8539 7.78301 37.0256 7.86501 37.178C8.07257 37.5662 8.40826 37.8456 8.78111 38.0659C9.2936 38.3683 9.88682 38.4413 10.4685 38.3901C10.8388 38.3568 11.1796 38.2914 11.5166 38.1287C11.9432 37.9237 12.2828 37.6367 12.5595 37.2536C12.9298 36.7463 13.0899 36.1018 13.3257 35.5227C13.3398 35.4868 13.327 35.4419 13.3347 35.4022C13.5884 35.4099 13.8408 35.415 14.0893 35.4214C15.1143 35.4471 16.1393 35.4727 17.1643 35.5009C19.1656 35.556 21.1631 35.6713 23.1657 35.6585C24.1881 35.6508 25.208 35.638 26.2279 35.6328C27.0658 35.629 27.905 35.5342 28.7391 35.4407C28.7545 35.7251 28.7801 36.007 28.8506 36.2824C28.9313 36.6028 29.1017 36.9141 29.2773 37.1934C29.4195 37.4189 29.5976 37.6252 29.8026 37.7943C30.4368 38.3171 31.2286 38.5221 32.0409 38.4055C32.5919 38.3273 33.0787 38.0352 33.4951 37.6777C33.7616 37.4497 33.9397 37.1422 34.0717 36.8231C34.1575 36.6156 34.2319 36.417 34.2421 36.1838C34.2729 35.6226 34.0768 35.1306 33.7847 34.6642C33.6399 34.4336 33.4926 34.2081 33.3632 33.9698C33.3465 33.939 33.3119 33.9275 33.2927 33.8993C33.4131 33.7968 33.5374 33.6994 33.6514 33.5892C33.8821 33.3637 34.0781 33.0896 34.2652 32.8282C34.4023 32.6411 34.5317 32.4374 34.6355 32.2324C34.9301 31.661 35.171 31.0703 35.3427 30.454C35.5234 29.8147 35.5964 29.1343 35.6656 28.4771C35.7565 27.5943 35.8257 26.7 35.795 25.8095C36.0576 25.7057 36.3164 25.5955 36.5586 25.4508C36.779 25.3239 37.066 25.0702 37.1851 24.8422C37.3197 24.5782 37.3812 24.3732 37.4132 24.0811C37.4286 23.9389 37.4337 23.7992 37.4337 23.6544C37.4388 22.992 37.4081 22.3347 37.3517 21.6749ZM35.2056 23.8594C35.2146 23.8479 35.2235 23.8364 35.2312 23.8248C35.2312 23.8261 35.2312 23.8287 35.2312 23.83C35.2235 23.8402 35.2146 23.8505 35.2056 23.8594ZM35.3158 23.6967C35.326 23.6724 35.3363 23.648 35.3465 23.6237C35.3389 23.648 35.3286 23.6711 35.3184 23.6942C35.3184 23.6954 35.3171 23.6967 35.3158 23.6967ZM18.7415 6.65097C18.7505 6.65225 18.7595 6.65225 18.7684 6.65353C18.7595 6.65353 18.7505 6.65225 18.7415 6.65097C18.7608 6.65225 18.78 6.65481 18.7979 6.65738C18.8094 6.65866 18.821 6.65994 18.8325 6.66122C18.821 6.65994 18.8107 6.65866 18.7992 6.65738C18.8492 6.66506 18.8979 6.67147 18.9478 6.67916C18.8146 6.87006 18.6839 7.06097 18.5558 7.25572C18.1688 7.83741 17.8062 8.42934 17.3885 8.99053C17.2912 9.10841 17.1899 9.22244 17.081 9.33134C17.0516 9.29034 17.0208 9.24934 16.9914 9.20834C17.0593 9.10456 17.1272 9.00078 17.1887 8.89444C17.3463 8.62281 17.5064 8.35375 17.6807 8.09494C18.0151 7.59909 18.3789 7.12631 18.7415 6.65097ZM9.15267 11.8042C9.16548 10.7971 9.19879 9.79516 9.31026 8.79322C9.35254 8.51519 9.39867 8.241 9.46273 7.96553C9.52936 7.67469 9.63314 7.38769 9.74204 7.10709C9.89323 6.79191 10.0905 6.51003 10.2981 6.23072C10.5223 5.94756 10.7542 5.67722 11.022 5.42994C11.1924 5.3095 11.3667 5.20316 11.555 5.10834C11.915 4.97253 12.2802 4.86875 12.6569 4.79956C12.999 4.77394 13.3359 4.77778 13.6793 4.81366C14.1354 4.88925 14.5672 5.00841 14.9977 5.17497C15.2489 5.29156 15.4795 5.42481 15.705 5.58625C15.9561 5.76691 16.1995 5.94628 16.466 6.10131C16.4827 6.11156 16.5019 6.11028 16.5199 6.11925C16.3546 6.35756 16.1983 6.601 16.0407 6.84572C15.3847 6.46263 14.6556 6.21406 13.9061 6.21406C13.6409 6.21406 13.3744 6.24353 13.1079 6.30887C12.8657 6.37037 12.6197 6.478 12.4019 6.59716C12.0995 6.76372 11.8664 7.03791 11.669 7.31466C11.3769 7.71825 11.2065 8.2205 11.0566 8.68944C10.7491 9.65422 10.7363 10.6908 10.7068 11.694C10.6786 12.628 10.7043 13.5595 10.7094 14.4922C10.7145 15.4916 10.7952 16.4871 10.8132 17.4865C10.8311 18.3232 10.826 19.1611 10.8414 19.999C10.2994 19.9939 9.75485 19.9888 9.21289 19.9824C9.18598 19.2982 9.17701 18.614 9.16804 17.9324C9.15267 16.9074 9.14498 15.8824 9.14498 14.8574C9.14242 13.8401 9.14242 12.8228 9.15267 11.8042ZM5.88932 23.0792C5.90342 23.0971 5.91751 23.1163 5.93289 23.1343C5.91751 23.1176 5.90342 23.0997 5.89061 23.0804L5.88932 23.0792ZM5.84064 22.9972C5.83295 22.9805 5.82526 22.9638 5.81886 22.9472C5.82654 22.9626 5.83295 22.9805 5.84064 22.9972ZM9.7587 36.1722H9.76126C9.75998 36.1735 9.7587 36.1735 9.7587 36.1722ZM9.78945 36.1876C9.78945 36.1863 9.78945 36.1863 9.78945 36.1876C9.8202 36.2004 9.85095 36.212 9.8817 36.2248C9.84967 36.2132 9.81892 36.2017 9.78945 36.1876ZM11.0002 35.7136C10.9413 35.834 10.8772 35.9506 10.8029 36.0621C10.7927 36.0736 10.7824 36.0838 10.7709 36.0954C10.6966 36.1428 10.621 36.1863 10.5428 36.2273C10.5134 36.2363 10.4839 36.244 10.4531 36.2517C10.2917 36.2645 10.1328 36.2658 9.97267 36.2568C9.9637 36.2542 9.95345 36.2517 9.94448 36.2491C9.89195 36.2209 9.8407 36.1927 9.79073 36.1607C9.82276 36.0095 9.86504 35.8622 9.91757 35.7174C10.0508 35.433 10.1866 35.1511 10.3224 34.8679C10.5364 34.9525 10.7517 35.0332 10.9708 35.0998C11.0476 35.1229 11.1284 35.1344 11.2065 35.1537C11.1373 35.3382 11.0707 35.5265 11.0002 35.7136ZM32.3523 36.0979C32.3343 36.1338 32.3151 36.1671 32.2946 36.2017C32.251 36.2466 32.2062 36.2888 32.1601 36.3298C32.1204 36.3555 32.0794 36.3785 32.0384 36.399C31.9487 36.4311 31.8603 36.4593 31.7693 36.4798C31.7104 36.481 31.6514 36.4785 31.5938 36.4746C31.5079 36.4541 31.4272 36.4298 31.3452 36.4016C31.2991 36.3773 31.2529 36.3503 31.2081 36.3222C31.1658 36.2837 31.1248 36.244 31.0864 36.203C31.0287 36.1146 30.9775 36.0236 30.9301 35.9288C30.9044 35.8519 30.8827 35.7763 30.866 35.6969C30.857 35.5457 30.8558 35.3945 30.8532 35.2421C30.8519 35.1959 30.8314 35.1549 30.825 35.1101C31.1082 35.0396 31.3849 34.9512 31.654 34.8436C31.6694 34.8756 31.6694 34.9192 31.6899 34.9461C31.9269 35.2523 32.1716 35.5675 32.3497 35.9134C32.3599 35.948 32.3702 35.9826 32.3792 36.0185C32.3702 36.0454 32.3612 36.0723 32.3523 36.0979ZM33.1172 30.8627C33.1492 30.7872 33.1812 30.7103 33.2133 30.6347C33.212 30.6372 33.212 30.6398 33.2107 30.6424C33.1799 30.7154 33.1479 30.7884 33.1172 30.8627ZM33.686 27.2317C33.6758 27.8518 33.6617 28.4771 33.5964 29.0921C33.5182 29.6135 33.4106 30.1388 33.2145 30.6308C33.0172 31.0767 32.7943 31.4918 32.515 31.889C32.3202 32.1209 32.1088 32.3298 31.8782 32.5271C31.5938 32.727 31.2939 32.8897 30.9775 33.0332C30.447 33.2254 29.9076 33.3381 29.3541 33.4214C28.4406 33.5329 27.5219 33.6264 26.6033 33.6905C25.609 33.7609 24.6045 33.7494 23.6064 33.7571C21.6 33.7725 19.5897 33.7187 17.5859 33.6405C16.6749 33.6072 15.7639 33.5675 14.8555 33.5367C14.0406 33.5085 13.2232 33.4624 12.4147 33.3689C11.9343 33.2856 11.4781 33.16 11.022 32.9883C10.4724 32.7372 9.9496 32.4297 9.45504 32.0812C9.13089 31.8019 8.84773 31.4944 8.57739 31.1613C8.39032 30.905 8.21351 30.6437 8.07386 30.3592C7.90345 29.8736 7.84195 29.365 7.76507 28.855C7.69845 28.3912 7.61901 27.9287 7.55111 27.4636C7.46014 26.6449 7.47807 25.8313 7.51139 25.0074C7.53061 24.6154 7.28845 24.2784 6.96173 24.0888C6.9092 23.6954 6.62732 23.3469 6.22501 23.2342C6.17761 23.2214 6.13148 23.2073 6.08664 23.1919C6.04564 23.1701 6.00464 23.1471 5.9662 23.1227C5.93673 23.0945 5.90854 23.0663 5.88036 23.0382V23.0369C5.85857 22.7294 5.87267 22.4232 5.89829 22.1157C6.68242 22.0836 7.46398 22.0478 8.25067 22.0554C8.78879 22.0631 9.32692 22.0606 9.86504 22.0606C10.334 22.0606 10.8042 22.0606 11.2757 22.0631C12.3109 22.0708 13.3462 22.1144 14.3814 22.1464C15.4526 22.1823 16.5275 22.1925 17.6012 22.1848C19.7576 22.1746 21.9126 22.1567 24.0664 22.2284C25.0991 22.2617 26.1344 22.3014 27.167 22.3219C28.2202 22.3424 29.2734 22.3373 30.3266 22.3399C31.3029 22.345 32.2831 22.3527 33.2594 22.345C33.9 22.3412 34.5419 22.3245 35.1825 22.3232C35.2223 22.7986 35.253 23.2726 35.2364 23.748C35.1492 23.8005 35.0608 23.8492 34.9673 23.894C34.8879 23.9248 34.8071 23.9555 34.7277 23.9876C34.4638 24.0913 34.2536 24.2131 34.1037 24.468C34.0602 24.5423 34.0448 24.6282 34.0204 24.7115C33.7821 24.9101 33.6169 25.1919 33.6412 25.511C33.686 26.0824 33.6963 26.6551 33.686 27.2317ZM18.7992 6.65738C18.7889 6.65609 18.7787 6.65481 18.7684 6.65353C18.7774 6.65481 18.7877 6.65609 18.7992 6.65738ZM20.5122 14.5601C20.2739 14.6998 19.9844 14.7369 19.7179 14.6639C19.4821 14.5973 19.2079 14.4205 19.1016 14.1898C18.9901 13.9438 18.9017 13.6902 18.7992 13.439C18.7108 13.2212 18.6096 13.0021 18.5558 12.7715C18.4392 12.259 18.7057 11.7286 19.2284 11.5838C19.3117 11.5607 19.3975 11.5492 19.4834 11.5492C19.6551 11.5492 19.8242 11.594 19.9715 11.6824C20.2047 11.817 20.3239 12.0156 20.4161 12.2577C20.4264 12.2846 20.4354 12.3128 20.4456 12.3397C20.4674 12.4012 20.4917 12.4627 20.5161 12.5229C20.5865 12.6805 20.6609 12.8304 20.7518 12.9752C20.9799 13.2481 21.0849 13.5851 20.9876 13.9426C20.9158 14.2027 20.7441 14.4256 20.5122 14.5601ZM20.1522 16.637C20.0561 16.3757 20.1266 16.031 20.2637 15.7965C20.4059 15.5531 20.6416 15.3724 20.9133 15.2968C21.0081 15.2699 21.1054 15.2571 21.2028 15.2571C21.395 15.2571 21.5872 15.3084 21.7538 15.4058C22.0126 15.5582 22.1522 15.7812 22.2534 16.0579C22.3803 16.4077 22.5046 16.7613 22.6289 17.1137C22.8223 17.6672 22.4136 18.2886 21.8806 18.4333C21.6039 18.5115 21.3028 18.4718 21.0529 18.327C20.789 18.172 20.6698 17.9567 20.5609 17.6851C20.4187 17.3379 20.2842 16.9881 20.1522 16.637ZM21.4463 7.95144C21.6474 7.75028 21.9216 7.6465 22.1945 7.6465C22.4636 7.6465 22.7326 7.74644 22.9312 7.95144C23.1401 8.16284 23.3399 8.39347 23.5616 8.59206C23.5719 8.59847 23.5821 8.60487 23.5936 8.61C24.0677 8.92006 24.2637 9.52609 23.9665 10.0335C23.8294 10.2667 23.6039 10.4396 23.3451 10.5101C23.0991 10.5793 22.7595 10.5613 22.543 10.4063C22.1471 10.1167 21.7922 9.77978 21.4463 9.43384C21.0414 9.03153 21.0427 8.35503 21.4463 7.95144ZM25.3976 11.8964C25.5962 11.5569 25.9857 11.3468 26.3739 11.3468C26.5597 11.3468 26.7455 11.3954 26.9108 11.5018C27.1645 11.6645 27.4182 11.8323 27.6667 11.9989C27.9076 12.1642 28.0908 12.3641 28.169 12.6511C28.2446 12.9329 28.2049 13.2392 28.0575 13.4903C27.7603 13.9977 27.0761 14.1886 26.5687 13.8811C26.3099 13.726 26.0511 13.5684 25.7974 13.4096C25.2862 13.0892 25.0876 12.4268 25.3976 11.8964ZM28.8596 16.3116C28.4175 15.9259 28.4662 15.1854 28.8596 14.7946C29.0697 14.5832 29.3298 14.4858 29.5924 14.4858C29.8705 14.4858 30.1511 14.5947 30.3766 14.7946C30.6315 15.0201 30.8827 15.2533 31.1453 15.4749C31.153 15.4801 31.1607 15.4852 31.1684 15.4903C31.4041 15.6556 31.5822 15.8452 31.6604 16.1297C31.736 16.4064 31.6988 16.7088 31.554 16.9573C31.4118 17.1957 31.1812 17.3737 30.9147 17.4468C30.6636 17.5172 30.3061 17.5032 30.0896 17.3404C29.6616 17.0201 29.2632 16.6627 28.8596 16.3116ZM23.723 12.5614C23.9332 12.8368 24.1433 13.1123 24.356 13.3878C24.4329 13.4852 24.5097 13.5813 24.5905 13.6761C24.7839 13.899 24.9056 14.1322 24.9056 14.4346C24.9056 14.719 24.7916 14.9932 24.5905 15.1931C24.3906 15.3929 24.1164 15.507 23.8319 15.507C23.5706 15.507 23.2464 15.4006 23.0735 15.1931C22.7134 14.7613 22.3662 14.3205 22.0177 13.8759C21.8832 13.7414 21.7896 13.5813 21.7384 13.398C21.6871 13.2058 21.6871 13.0124 21.7384 12.8202C21.814 12.5486 21.9946 12.3154 22.2381 12.1732C22.4059 12.0745 22.5981 12.0245 22.7903 12.0245C22.8851 12.0245 22.9799 12.0373 23.0722 12.0617C23.372 12.145 23.5424 12.3256 23.723 12.5614ZM24.7685 16.6012C24.8441 16.3295 25.0248 16.0938 25.2682 15.949C25.4348 15.8516 25.627 15.8017 25.8192 15.8017C25.9165 15.8017 26.0139 15.8145 26.1087 15.8401C26.406 15.9234 26.5777 16.104 26.7583 16.3398C26.8852 16.5102 27.0107 16.6806 27.1389 16.851C27.1619 16.8792 27.185 16.9074 27.208 16.9343C27.3989 17.1598 27.5232 17.3917 27.5232 17.6953C27.5232 17.9772 27.4092 18.254 27.208 18.4538C26.8121 18.8498 26.0793 18.8907 25.691 18.4538C25.404 18.1297 25.1427 17.7812 24.8787 17.4391C24.7109 17.22 24.7006 16.8523 24.7685 16.6012ZM32.1742 26.7871C32.2075 27.7262 32.1614 28.6898 31.8769 29.593C31.6822 30.2093 31.3721 30.823 30.9057 31.2804C30.5201 31.6558 30.0588 31.9659 29.6142 32.2696C29.1402 32.5912 28.4521 32.3605 28.1779 31.8942C27.9089 31.4303 28.0383 30.7064 28.5534 30.4579C28.7532 30.3631 28.9339 30.249 29.112 30.1247C29.2504 30.012 29.3798 29.8941 29.4976 29.7609C29.5835 29.634 29.6616 29.5046 29.7283 29.3688C29.8628 28.9883 29.9474 28.5949 30.0089 28.1952C30.055 27.7263 30.0255 27.2547 30.0037 26.7871C29.9755 26.1926 30.5162 25.7006 31.0902 25.7006C31.6975 25.7006 32.1537 26.1952 32.1742 26.7871Z" fill="#158742"></path>
</svg>
